<?xml version="1.0" standalone="no"?>
<!DOCTYPE svg PUBLIC "-//W3C//DTD SVG 20010904//EN"
 "http://www.w3.org/TR/2001/REC-SVG-20010904/DTD/svg10.dtd">
<svg version="1.0" xmlns="http://www.w3.org/2000/svg"
 width="380.000000pt" height="380.000000pt" viewBox="0 0 380.000000 380.000000"
 preserveAspectRatio="xMidYMid meet">
<metadata>
Created by potrace 1.14, written by Peter Selinger 2001-2017
</metadata>
<g transform="translate(0.000000,380.000000) scale(0.100000,-0.100000)"
fill="#000000" stroke="none">
<path d="M0 1900 l0 -1900 1900 0 1900 0 0 1900 0 1900 -1900 0 -1900 0 0
-1900z m2250 1761 c335 -71 624 -222 861 -449 286 -273 454 -589 525 -987 23
-131 24 -422 0 -545 -9 -47 -18 -98 -21 -115 -11 -56 -65 -224 -75 -230 -6 -3
-10 -16 -10 -28 0 -12 -22 -68 -50 -125 l-49 -102 -293 -2 -293 -3 275 -5
c242 -4 275 -7 278 -21 3 -15 -61 -115 -118 -187 l-25 -31 -320 -2 c-222 -1
-324 -5 -334 -13 -11 -8 60 -12 285 -16 295 -5 299 -5 302 -26 2 -16 -20 -42
-85 -103 l-87 -81 -161 0 c-88 0 -585 0 -1104 0 l-944 0 -74 67 c-85 76 -106
103 -97 127 6 14 47 16 446 16 398 0 439 1 427 16 -8 10 -27 15 -53 14 -23 -1
-233 -1 -467 -1 l-425 1 -60 83 c-34 45 -66 93 -73 105 -28 52 -32 52 386 55
l388 2 -401 3 c-371 2 -402 3 -417 20 -21 23 -97 185 -97 206 0 9 -6 27 -14
39 -15 22 -59 164 -70 222 -28 153 -35 205 -41 300 -11 188 22 433 86 630 17
50 56 145 89 212 97 203 201 345 369 505 259 248 573 402 946 464 129 21 463
13 595 -15z m630 -3145 c0 -29 -61 -69 -222 -146 -522 -248 -1135 -220 -1640
76 -73 43 -92 67 -71 87 3 4 440 7 970 7 l963 0 0 -24z"/>
<path d="M1685 3619 c-397 -53 -801 -273 -1053 -573 -202 -242 -332 -516 -382
-810 -29 -171 -26 -506 6 -608 5 -16 25 -18 226 -18 206 0 220 1 213 18 -59
134 -59 229 -2 345 38 77 112 159 183 204 l42 27 0 135 c0 113 4 153 25 232
42 160 112 283 231 408 200 207 466 312 764 299 435 -20 794 -299 903 -703 18
-64 22 -110 23 -227 l1 -146 35 -19 c62 -33 154 -133 191 -208 29 -60 34 -82
37 -156 3 -74 0 -95 -21 -148 l-25 -61 241 2 242 3 7 40 c47 267 23 568 -64
830 -190 566 -667 987 -1264 1115 -114 25 -438 36 -559 19z"/>
<path d="M1770 3239 c-36 -5 -105 -20 -153 -34 -419 -121 -684 -481 -664 -902
l5 -112 -71 -48 c-85 -58 -159 -149 -182 -225 -8 -28 -15 -83 -15 -122 0 -165
124 -300 318 -346 29 -7 55 -11 56 -9 2 2 6 222 10 489 8 534 14 616 55 738
40 115 84 182 173 267 135 127 334 210 534 222 216 13 428 -51 601 -181 136
-103 226 -262 252 -448 10 -77 21 -481 23 -860 0 -167 4 -228 12 -228 7 0 38
7 69 15 129 34 227 109 275 213 22 46 26 72 27 138 0 73 -3 87 -38 156 -40 82
-111 157 -189 200 l-42 23 3 140 c2 121 -1 153 -22 236 -95 370 -403 629 -807
679 -95 11 -136 11 -230 -1z"/>
<path d="M1731 3109 c-183 -36 -375 -144 -471 -264 -35 -44 -84 -134 -77 -142
3 -2 8 5 12 16 3 12 11 19 16 16 5 -3 6 1 3 10 -4 9 -3 15 2 13 5 -1 45 34 89
78 44 44 103 93 130 108 73 40 180 74 262 82 58 5 74 10 78 25 10 30 45 42
122 42 56 0 77 -4 93 -18 11 -10 20 -23 20 -30 0 -6 17 -12 38 -13 188 -13
357 -99 480 -245 19 -23 39 -41 45 -39 5 2 6 -5 3 -15 -5 -14 -4 -15 4 -7 14
14 -5 58 -20 49 -6 -3 -7 0 -4 8 3 8 -12 36 -34 63 -96 121 -255 212 -452 258
-71 17 -264 20 -339 5z"/>
<path d="M1857 3043 c18 -2 50 -2 70 0 21 2 7 4 -32 4 -38 0 -55 -2 -38 -4z"/>
<path d="M1767 2989 c-204 -21 -313 -66 -422 -174 -42 -42 -84 -95 -104 -133
-32 -62 -71 -213 -71 -280 l0 -33 298 8 c370 10 472 10 845 0 l297 -8 0 40 c0
70 -29 194 -61 259 -60 122 -194 239 -322 281 -116 37 -316 55 -460 40z"/>
<path d="M2604 2685 c3 -11 15 -54 25 -95 11 -41 20 -67 20 -56 1 24 -28 137
-40 156 -8 12 -9 11 -5 -5z"/>
<path d="M1156 2640 c-9 -29 -18 -75 -20 -104 l-5 -51 10 50 c5 28 17 72 25
98 9 27 14 51 11 54 -3 3 -13 -19 -21 -47z"/>
<path d="M2653 2475 c0 -22 2 -30 4 -17 2 12 2 30 0 40 -3 9 -5 -1 -4 -23z"/>
<path d="M1121 2325 c-1 -88 -4 -170 -5 -183 -3 -24 25 -47 39 -34 5 4 5 2 1
-5 -3 -6 -2 -14 4 -18 7 -4 10 35 10 114 0 114 -1 121 -20 121 -17 0 -20 8
-23 83 -2 50 -4 20 -6 -78z"/>
<path d="M2660 2365 c0 -25 -5 -38 -17 -42 -10 -4 -21 -11 -25 -17 -12 -17 -9
-184 2 -191 8 -5 7 -12 -2 -23 -7 -9 2 -5 20 8 l32 24 0 138 c0 76 -2 138 -5
138 -3 0 -5 -16 -5 -35z"/>
<path d="M1420 2331 c-107 -4 -196 -8 -197 -9 -2 -1 -3 -52 -3 -113 0 -107 1
-112 31 -156 25 -36 35 -44 53 -38 73 22 310 65 414 76 201 20 448 0 674 -55
110 -26 119 -24 157 38 18 28 21 49 21 138 l0 106 -30 5 c-47 10 -905 15
-1120 8z"/>
<path d="M2646 2051 c-17 -19 -17 -19 1 -17 10 2 19 10 21 19 4 22 -1 21 -22
-2z"/>
<path d="M1126 2029 c3 -5 10 -6 16 -3 7 5 9 2 6 -7 -3 -8 0 -23 8 -34 14 -18
14 -18 14 1 0 26 -15 47 -34 50 -9 1 -14 -2 -10 -7z"/>
<path d="M1815 2030 c-4 -6 -12 -7 -18 -3 -7 4 3 -13 21 -37 l32 -44 0 -130 0
-130 -50 -46 c-60 -55 -67 -90 -19 -90 20 0 37 -8 49 -22 25 -31 90 -31 123 0
13 12 35 22 50 22 44 0 36 39 -18 89 l-45 41 0 138 c0 132 1 140 25 172 27 36
30 45 16 35 -5 -3 -12 -1 -16 5 -3 5 -37 10 -75 10 -38 0 -72 -5 -75 -10z"/>
<path d="M1712 1999 c40 -54 42 -58 37 -64 -9 -8 -402 -66 -416 -61 -18 7 -16
31 3 64 15 25 15 25 0 8 -9 -11 -16 -15 -16 -9 0 8 -12 10 -34 6 -27 -4 -36
-1 -50 18 -15 23 -16 21 -16 -52 0 -67 4 -85 35 -146 55 -111 171 -210 267
-228 33 -6 44 -1 157 82 l120 88 1 121 0 120 -36 42 c-20 23 -44 42 -55 42
-20 0 -20 -1 3 -31z m23 11 c3 -5 2 -10 -4 -10 -5 0 -13 5 -16 10 -3 6 -2 10
4 10 5 0 13 -4 16 -10z"/>
<path d="M2016 1986 l-36 -44 0 -116 0 -115 116 -86 c64 -48 122 -89 129 -91
26 -10 101 19 161 62 116 82 175 186 181 319 3 55 1 76 -6 65 -5 -8 -7 -19 -4
-25 4 -5 3 -7 -2 -3 -4 4 -14 3 -21 -2 -13 -12 -72 -9 -94 5 -13 8 -13 6 -1
-8 7 -9 17 -15 21 -12 8 5 6 -52 -3 -61 -8 -9 -408 53 -419 64 -6 6 3 23 21
45 36 40 38 47 12 47 -10 0 -35 -20 -55 -44z m64 30 c0 -2 -6 -9 -13 -15 -10
-8 -14 -7 -14 4 0 8 6 15 14 15 7 0 13 -2 13 -4z"/>
<path d="M2620 2008 c0 -4 4 -8 9 -8 6 0 12 4 15 8 3 5 -1 9 -9 9 -8 0 -15 -4
-15 -9z"/>
<path d="M1508 2003 c-33 -5 -50 -25 -46 -55 3 -21 7 -23 50 -20 69 5 103 16
106 36 8 39 -27 52 -110 39z"/>
<path d="M2171 1996 c-29 -35 7 -61 94 -67 47 -4 50 -3 53 22 4 35 -14 47 -79
55 -43 5 -57 3 -68 -10z"/>
<path d="M1659 1976 c9 -11 9 -15 -1 -19 -7 -3 -2 -6 11 -6 23 -1 24 0 6 19
-20 23 -34 28 -16 6z"/>
<path d="M2119 1983 c-1 -5 -1 -12 0 -16 1 -5 -3 -6 -8 -3 -5 4 -12 2 -16 -4
-3 -5 3 -10 14 -10 14 0 21 6 21 20 0 19 -9 29 -11 13z"/>
<path d="M1111 1900 c0 -47 3 -78 6 -70 3 8 14 27 24 42 20 28 24 43 10 34 -5
-3 -8 2 -7 12 0 10 -5 16 -13 14 -8 -2 -11 3 -8 11 3 8 1 20 -4 28 -5 9 -8
-18 -8 -71z"/>
<path d="M2644 1937 c-20 -30 -20 -33 -4 -60 26 -42 27 -41 29 28 1 36 1 65
-1 65 -2 0 -12 -15 -24 -33z"/>
<path d="M1400 1935 l-23 -25 30 0 c27 0 30 3 25 25 -2 14 -5 25 -6 25 -2 0
-13 -11 -26 -25z m20 -5 c0 -5 -5 -10 -11 -10 -5 0 -7 5 -4 10 3 6 8 10 11 10
2 0 4 -4 4 -10z"/>
<path d="M2360 1951 c0 -10 19 -25 25 -20 1 2 -3 10 -11 17 -8 7 -14 8 -14 3z"/>
<path d="M2358 1918 c6 -6 18 -8 28 -6 14 3 12 5 -9 10 -19 3 -25 2 -19 -4z"/>
<path d="M1157 1818 c-3 -12 -2 -29 3 -37 7 -12 9 -6 10 22 0 42 -5 48 -13 15z"/>
<path d="M2610 1835 c0 -5 5 -17 10 -25 5 -8 10 -10 10 -5 0 6 -5 17 -10 25
-5 8 -10 11 -10 5z"/>
<path d="M2615 1779 c-4 -6 -5 -12 -2 -15 2 -3 7 2 10 11 7 17 1 20 -8 4z"/>
<path d="M2671 1775 c-2 -11 -3 -24 -2 -28 1 -5 -2 -6 -7 -3 -16 10 -52 -52
-52 -88 0 -27 6 -40 26 -52 38 -25 45 -9 41 97 -1 52 -4 85 -6 74z"/>
<path d="M1108 1706 c-6 -71 -1 -116 14 -116 5 0 7 4 4 8 -3 5 5 8 17 8 19 -1
22 5 25 45 2 37 -2 51 -26 82 l-29 36 -5 -63z"/>
<path d="M2530 1694 c-38 -61 -133 -143 -201 -174 -71 -32 -113 -27 -176 20
-29 23 -58 38 -65 34 -6 -4 -8 -3 -4 4 3 6 2 13 -3 17 -6 3 -11 -15 -13 -42
-3 -44 -5 -48 -31 -51 -15 -2 -25 -8 -21 -13 3 -5 10 -6 16 -3 7 4 8 2 4 -4
-11 -17 21 -28 140 -47 61 -9 116 -20 121 -24 5 -3 20 -22 34 -41 42 -62 45
-58 76 105 3 17 16 45 30 63 13 17 22 36 18 41 -3 5 0 13 6 17 8 5 9 3 4 -6
-5 -9 -4 -11 4 -6 6 4 9 12 6 17 -4 5 -2 9 3 9 10 0 92 117 92 132 0 14 -4 9
-40 -48z"/>
<path d="M1220 1731 c0 -17 61 -101 73 -101 6 0 8 -3 4 -6 -3 -4 12 -31 34
-60 32 -44 42 -69 55 -138 10 -50 21 -87 30 -90 8 -3 24 11 41 37 l29 42 120
21 c127 22 148 29 138 46 -4 6 -2 8 4 4 6 -3 13 -2 17 4 4 6 -4 10 -18 10 -28
0 -37 16 -37 66 l0 35 -67 -52 c-63 -47 -71 -51 -114 -47 -25 3 -66 14 -90 26
-59 28 -155 115 -191 171 -15 25 -28 39 -28 32z m101 -128 c13 -16 12 -17 -3
-4 -10 7 -18 15 -18 17 0 8 8 3 21 -13z"/>
<path d="M2512 1567 l-51 -74 50 -61 c27 -34 51 -62 52 -62 1 0 4 49 5 109 3
71 0 111 -7 115 -8 5 -8 13 -1 27 22 40 1 16 -48 -54z"/>
<path d="M1220 1503 l1 -128 49 55 c28 30 50 58 50 62 0 18 -73 107 -83 101
-6 -4 -8 0 -4 10 3 9 2 19 -3 22 -6 4 -10 -43 -10 -122z"/>
<path d="M275 1543 c3 -20 17 -68 29 -107 l22 -71 422 -3 422 -2 0 104 0 104
-30 -11 c-30 -11 -30 -12 -30 -85 l0 -74 -52 7 c-117 16 -228 67 -297 139
l-35 36 -229 0 -229 0 7 -37z"/>
<path d="M3011 1534 c-24 -24 -70 -57 -102 -72 -55 -26 -58 -29 -58 -65 l-1
-37 322 2 322 3 27 85 c15 47 28 95 28 108 l1 22 -247 0 -248 -1 -44 -45z"/>
<path d="M2610 1464 l0 -104 70 0 c67 0 70 1 70 24 0 20 -4 23 -37 22 l-38 -1
3 70 4 70 -36 11 -36 11 0 -103z"/>
<path d="M1815 1470 c-3 -5 -1 -10 4 -10 6 0 11 5 11 10 0 6 -2 10 -4 10 -3 0
-8 -4 -11 -10z"/>
<path d="M1950 1475 c0 -2 10 -10 23 -16 20 -11 21 -11 8 4 -13 16 -31 23 -31
12z"/>
<path d="M1290 1417 c-20 -23 -41 -49 -48 -59 -11 -14 -5 -21 55 -57 37 -22
68 -39 70 -37 5 4 -27 169 -36 183 -5 9 -18 0 -41 -30z"/>
<path d="M2441 1408 c-6 -29 -15 -74 -20 -101 l-9 -48 57 32 c88 49 88 48 42
107 -22 27 -44 53 -50 56 -5 4 -14 -17 -20 -46z"/>
<path d="M1803 1429 c-34 -10 -37 -17 -27 -57 6 -21 7 -22 19 -5 28 41 47 73
44 72 -2 0 -19 -5 -36 -10z"/>
<path d="M1841 1393 c-17 -25 -30 -47 -28 -49 1 -1 17 1 35 3 32 5 33 7 31 49
-2 24 -4 44 -5 44 -1 0 -16 -21 -33 -47z"/>
<path d="M1965 1402 c29 -45 40 -46 47 -8 4 19 0 26 -18 30 -12 3 -30 9 -39
12 -13 5 -11 -3 10 -34z"/>
<path d="M1910 1393 c0 -28 4 -43 13 -43 6 0 23 -3 36 -7 17 -4 22 -3 17 6 -4
6 -12 9 -17 6 -5 -3 -7 0 -4 7 3 7 -6 27 -20 43 l-24 30 -1 -42z"/>
<path d="M2792 1235 c2 -101 1 -178 -2 -170 -3 9 -45 -24 -130 -102 -166 -154
-252 -224 -266 -219 -19 7 -47 -18 -42 -40 7 -41 38 -25 145 73 159 146 190
176 173 167 -9 -4 -12 -3 -7 2 5 5 14 9 21 9 7 0 38 23 70 52 l58 51 -3 181
c-2 100 -8 181 -12 181 -5 0 -7 -83 -5 -185z m-188 -348 c-97 -88 -134 -119
-134 -114 0 6 179 167 187 167 4 0 -20 -24 -53 -53z"/>
<path d="M1689 1403 c-33 -4 -35 -6 -31 -34 6 -43 17 -43 46 1 14 22 25 39 24
38 -2 -1 -19 -3 -39 -5z"/>
<path d="M2060 1403 c0 -2 12 -22 27 -45 27 -40 28 -40 34 -17 14 49 11 57
-26 61 -19 2 -35 3 -35 1z"/>
<path d="M1565 1381 c-23 -3 -40 -11 -39 -18 1 -7 2 -24 3 -38 2 -36 16 -31
51 20 17 25 30 44 28 44 -2 -1 -21 -5 -43 -8z"/>
<path d="M1724 1356 l-22 -32 22 -2 c17 -1 18 1 6 9 -12 9 -10 10 7 6 20 -5
22 -2 17 21 -4 15 -7 28 -8 29 -1 1 -11 -13 -22 -31z"/>
<path d="M2030 1365 c0 -17 6 -25 18 -25 13 0 14 -2 4 -9 -10 -6 -7 -10 11
-13 l25 -5 -25 39 c-14 21 -27 38 -29 38 -2 0 -4 -11 -4 -25z"/>
<path d="M2180 1383 c0 -3 14 -25 32 -50 30 -45 32 -46 40 -23 16 44 6 64 -34
71 -21 3 -38 4 -38 2z"/>
<path d="M1601 1334 c-28 -40 -25 -46 16 -38 26 5 29 9 25 35 -6 42 -14 42
-41 3z"/>
<path d="M2145 1340 c-8 -37 -9 -36 34 -45 l33 -7 -18 32 c-30 51 -41 55 -49
20z"/>
<path d="M1462 1298 l-33 -50 33 7 c44 10 48 13 47 38 -1 56 -13 57 -47 5z"/>
<path d="M2280 1333 c0 -10 -3 -28 -6 -39 -5 -17 1 -24 27 -33 50 -17 51 -14
18 39 -33 54 -39 59 -39 33z"/>
<path d="M1220 1231 l0 -90 70 40 c39 23 70 45 70 49 0 7 -80 59 -132 87 -5 2
-8 -36 -8 -86z"/>
<path d="M2515 1292 c-68 -38 -95 -56 -95 -62 0 -11 131 -82 138 -75 5 5 13
166 8 165 -1 0 -23 -13 -51 -28z"/>
<path d="M355 1301 c-2 -2 17 -45 43 -97 l47 -94 365 0 365 0 -3 95 -3 95
-406 2 c-222 2 -406 1 -408 -1z"/>
<path d="M1810 1289 c-46 -13 -54 -17 -25 -13 27 3 35 2 26 -5 -11 -7 -2 -11
32 -16 59 -9 147 2 126 16 -9 7 -1 8 26 4 25 -3 14 3 -30 15 -82 23 -73 23
-155 -1z"/>
<path d="M2678 1303 l-68 -4 0 -94 0 -95 70 0 70 0 0 100 c0 55 -1 99 -2 98
-2 -1 -33 -3 -70 -5z"/>
<path d="M2850 1205 l0 -95 263 0 262 0 48 95 47 95 -310 0 -310 0 0 -95z"/>
<path d="M1654 1236 c10 -9 23 -13 29 -9 6 3 7 1 3 -5 -3 -5 11 -24 32 -41 81
-64 265 -65 341 -2 20 16 35 35 33 41 -2 7 3 10 12 7 8 -3 20 0 26 8 9 11 7
13 -7 10 -10 -2 -66 -14 -124 -26 l-106 -21 -109 22 c-60 12 -118 23 -129 26
-20 5 -20 5 -1 -10z"/>
<path d="M1456 1227 l-29 -13 39 -31 39 -31 3 44 c3 48 -3 52 -52 31z"/>
<path d="M1575 1231 c6 -11 4 -13 -8 -8 -14 5 -17 0 -17 -34 0 -38 3 -41 43
-59 85 -38 148 -60 142 -51 -3 5 -1 12 5 16 5 3 -25 34 -68 67 -113 89 -107
85 -97 69z"/>
<path d="M2125 1175 c-47 -39 -80 -73 -81 -84 -1 -19 2 -19 65 6 36 13 79 29
94 35 26 10 28 14 25 56 -2 25 -7 47 -13 48 -5 2 -46 -26 -90 -61z"/>
<path d="M2280 1200 c0 -36 2 -40 18 -31 9 5 26 18 36 30 18 20 18 21 -8 31
-42 16 -46 13 -46 -30z"/>
<path d="M1313 1168 c-40 -23 -73 -46 -73 -50 0 -11 130 -134 137 -130 3 2 10
-2 14 -10 10 -15 10 162 0 204 l-6 28 -72 -42z"/>
<path d="M2389 1158 c-1 -29 -3 -86 -5 -126 l-3 -73 57 50 c31 27 70 63 85 79
l28 30 -28 19 c-36 25 -120 73 -127 73 -3 0 -7 -24 -7 -52z"/>
<path d="M1420 1107 c0 -120 6 -130 41 -67 44 81 44 84 -1 120 l-40 32 0 -85z"/>
<path d="M2317 1153 l-36 -38 39 -70 40 -70 0 55 c0 30 3 79 6 108 4 30 3 52
-3 52 -5 0 -25 -17 -46 -37z"/>
<path d="M1546 1082 c15 -47 68 -162 74 -162 4 0 28 24 54 54 l46 54 -43 17
c-142 57 -137 56 -131 37z"/>
<path d="M1755 1090 c-3 -6 1 -7 9 -4 18 7 21 14 7 14 -6 0 -13 -4 -16 -10z"/>
<path d="M2158 1066 c-42 -17 -80 -34 -83 -38 -9 -8 85 -109 95 -103 9 6 74
165 69 169 -2 2 -39 -11 -81 -28z"/>
<path d="M1475 1019 c-20 -39 -35 -72 -33 -74 6 -6 148 -44 148 -39 0 7 -72
184 -75 184 -1 0 -19 -32 -40 -71z"/>
<path d="M1856 1075 c1 -5 10 -37 20 -70 l17 -60 18 65 c11 36 19 67 19 70 0
3 -17 5 -39 5 -21 0 -37 -4 -35 -10z"/>
<path d="M2245 1038 c-9 -24 -25 -64 -36 -90 l-18 -46 72 19 c39 11 74 23 77
25 6 7 -60 134 -70 134 -4 0 -16 -19 -25 -42z"/>
<path d="M2618 1073 c18 -2 45 -2 60 0 15 2 0 4 -33 4 -33 0 -45 -2 -27 -4z"/>
<path d="M1796 1053 l-29 -15 41 -41 c23 -23 43 -39 46 -36 6 5 -14 91 -23
101 -3 3 -19 0 -35 -9z"/>
<path d="M1940 1023 c-6 -27 -14 -54 -16 -61 -2 -8 19 5 46 28 l51 43 -31 18
c-17 11 -32 19 -34 19 -2 0 -9 -21 -16 -47z"/>
<path d="M521 993 c18 -27 48 -67 67 -90 l34 -43 414 0 414 0 -104 90 -104 90
-377 0 -376 0 32 -47z"/>
<path d="M2490 997 c-25 -23 -70 -63 -100 -89 l-55 -48 80 1 80 0 95 89 95 90
-75 0 c-74 0 -75 -1 -120 -43z"/>
<path d="M2800 997 c-25 -23 -71 -65 -102 -92 l-56 -50 281 5 282 5 53 70 c89
117 108 105 -170 105 l-243 0 -45 -43z"/>
<path d="M1714 987 c-16 -17 -39 -43 -51 -57 l-22 -25 82 7 c45 3 94 7 109 7
27 1 27 1 -15 39 -74 66 -70 65 -103 29z"/>
<path d="M1980 970 c-51 -45 -53 -49 -30 -50 14 -1 62 -5 106 -8 l82 -7 -18
25 c-10 14 -33 39 -52 57 l-33 32 -55 -49z"/>
<path d="M1470 905 c0 -11 124 -94 133 -88 5 3 7 1 3 -5 -3 -6 -2 -13 4 -17 5
-3 10 0 10 8 0 20 -21 77 -28 77 -4 1 -33 7 -64 14 -32 8 -58 13 -58 11z"/>
<path d="M2247 893 c-58 -15 -69 -25 -81 -76 l-7 -29 33 23 c57 40 130 99 121
98 -4 -1 -34 -8 -66 -16z"/>
<path d="M1823 893 c-9 -3 0 -29 29 -86 l40 -82 40 79 c31 62 37 81 26 87 -14
9 -115 11 -135 2z"/>
<path d="M1677 881 l-28 -6 40 -39 c22 -22 44 -37 47 -33 4 4 15 25 25 47 l18
40 -37 -1 c-20 -1 -50 -4 -65 -8z"/>
<path d="M2015 873 c4 -10 12 -30 17 -45 5 -16 13 -28 17 -28 4 0 24 17 45 39
l37 38 -38 6 c-68 12 -86 9 -78 -10z"/>
<path d="M1775 827 c-10 -26 -16 -49 -14 -51 13 -11 92 -47 96 -43 2 3 -11 35
-30 73 l-34 67 -18 -46z"/>
<path d="M1645 815 c8 -28 15 -51 15 -53 0 -2 4 -1 9 2 5 4 11 0 14 -6 3 -10
9 -9 21 2 15 14 12 20 -29 60 l-45 45 15 -50z"/>
<path d="M1952 795 c-17 -36 -30 -65 -28 -65 4 0 99 41 103 45 5 3 -32 85 -37
85 -3 0 -20 -29 -38 -65z"/>
<path d="M2098 811 l-42 -38 23 -13 c19 -10 26 -9 36 2 13 13 37 88 29 88 -3
0 -23 -17 -46 -39z"/>
<path d="M2271 813 c-13 -10 -2 -12 61 -13 42 0 80 5 83 10 7 11 -4 13 -79 14
-27 1 -56 -4 -65 -11z"/>
<path d="M785 695 l80 -75 480 0 480 0 -43 20 c-24 11 -81 44 -128 75 l-85 55
-432 0 -432 -1 80 -74z"/>
<path d="M2162 734 c-29 -19 -85 -53 -125 -74 l-72 -40 495 0 495 0 80 75 80
74 -285 1 -286 0 -71 -65 c-39 -36 -78 -65 -86 -65 -24 0 -67 40 -67 63 0 11
10 31 22 44 l21 23 -74 0 c-69 0 -78 -3 -127 -36z"/>
<path d="M1730 739 c0 -5 -4 -7 -10 -4 -5 3 -10 4 -10 1 0 -3 9 -10 19 -15 16
-9 18 -8 14 9 -6 21 -13 27 -13 9z"/>
<path d="M1772 720 c14 -40 43 -56 76 -41 29 14 31 12 -35 45 l-52 26 11 -30z"/>
<path d="M2054 742 c3 -5 0 -12 -6 -15 -7 -2 -10 -7 -7 -11 3 -4 12 0 18 8 9
11 9 16 0 22 -7 4 -9 3 -5 -4z"/>
<path d="M1961 719 c-42 -19 -44 -21 -28 -37 16 -15 20 -15 44 -2 24 14 52 60
35 60 -4 0 -27 -9 -51 -21z"/>
<path d="M1876 672 c-2 -4 4 -8 14 -8 10 0 16 4 14 8 -3 4 -9 8 -14 8 -5 0
-11 -4 -14 -8z"/>
<path d="M1040 505 c0 -10 219 -114 305 -145 435 -155 908 -124 1327 86 60 30
108 56 108 59 0 3 -391 5 -870 5 -478 0 -870 -2 -870 -5z"/>
</g>
</svg>
